HIERARCHY
ROOT Root
{
  OFFSET 0.0 0.0 0.0
  CHANNELS 6 Xposition Yposition Zposition Zrotation Yrotation Xrotation
  JOINT Hips
  {
    OFFSET 0.0 100.0 0.0
    CHANNELS 6 Xposition Yposition Zposition Zrotation Yrotation Xrotation
    JOINT Spine1
    {
      OFFSET -0.013727 5.003763 -0.053727
      CHANNELS 3 Zrotation Yrotation Xrotation
      JOINT Spine2
      {
        OFFSET -0.0 7.125301 -0.029825
        CHANNELS 3 Zrotation Yrotation Xrotation
        JOINT Chest
        {
          OFFSET -1e-06 7.550063 -0.815971
          CHANNELS 3 Zrotation Yrotation Xrotation
          JOINT Neck1
          {
            OFFSET -0.181677 26.311295 -0.553348
            CHANNELS 3 Zrotation Yrotation Xrotation
            JOINT Neck2
            {
              OFFSET -3e-06 7.709397 2.302585
              CHANNELS 3 Zrotation Yrotation Xrotation
              JOINT Head
              {
                OFFSET -5e-06 6.128916 1.953709
                CHANNELS 3 Zrotation Yrotation Xrotation
                JOINT HeadEnd
                {
                  OFFSET 0.003598 16.065403 -1.835379
                  CHANNELS 3 Zrotation Yrotation Xrotation
                }
                JOINT Jaw
                {
                  OFFSET 0.002637 0.475592 3.094941
                  CHANNELS 3 Zrotation Yrotation Xrotation
                }
                JOINT LeftEye
                {
                  OFFSET 3.206381 5.380205 7.586883
                  CHANNELS 3 Zrotation Yrotation Xrotation
                }
                JOINT RightEye
                {
                  OFFSET -3.22244 5.361869 7.558234
                  CHANNELS 3 Zrotation Yrotation Xrotation
                }
              }
            }
          }
          JOINT LeftShoulder
          {
            OFFSET 1.621652 23.237164 5.113413
            CHANNELS 3 Zrotation Yrotation Xrotation
            JOINT LeftArm
            {
              OFFSET 14.919846 2e-06 -5.502326
              CHANNELS 3 Zrotation Yrotation Xrotation
              JOINT LeftForeArm
              {
                OFFSET 28.739307 0.0 -0.002588
                CHANNELS 3 Zrotation Yrotation Xrotation
                JOINT LeftHand
                {
                  OFFSET 27.093981 -1e-06 0.002609
                  CHANNELS 3 Zrotation Yrotation Xrotation
                  JOINT LeftHandThumb1
                  {
                    OFFSET 2.276482 -1.392045 3.191413
                    CHANNELS 3 Zrotation Yrotation Xrotation
                    JOINT LeftHandThumb2
                    {
                      OFFSET 4.012836 -1.828127 1.641654
                      CHANNELS 3 Zrotation Yrotation Xrotation
                      JOINT LeftHandThumb3
                      {
                        OFFSET 2.798515 0.0 -3e-06
                        CHANNELS 3 Zrotation Yrotation Xrotation
                        JOINT LeftHandThumbEnd
                        {
                          OFFSET 3.180793 -4e-06 4e-06
                          CHANNELS 3 Zrotation Yrotation Xrotation
                        }
                      }
                    }
                  }
                  JOINT LeftHandIndex1
                  {
                    OFFSET 3.247555 -0.531998 2.296169
                    CHANNELS 3 Zrotation Yrotation Xrotation
                    JOINT LeftHandIndex2
                    {
                      OFFSET 6.364578 0.01206 0.1786
                      CHANNELS 3 Zrotation Yrotation Xrotation
                      JOINT LeftHandIndex3
                      {
                        OFFSET 3.662364 0.0 0.0
                        CHANNELS 3 Zrotation Yrotation Xrotation
                        JOINT LeftHandIndex4
                        {
                          OFFSET 2.329242 4e-06 4e-06
                          CHANNELS 3 Zrotation Yrotation Xrotation
                          JOINT LeftHandIndexEnd
                          {
                            OFFSET 2.759615 -0.180537 -0.113024
                            CHANNELS 3 Zrotation Yrotation Xrotation
                          }
                        }
                      }
                    }
                  }
                  JOINT LeftHandMiddle1
                  {
                    OFFSET 3.163495 0.240981 1.000332
                    CHANNELS 3 Zrotation Yrotation Xrotation
                    JOINT LeftHandMiddle2
                    {
                      OFFSET 6.19078 -0.259278 -1.002548
                      CHANNELS 3 Zrotation Yrotation Xrotation
                      JOINT LeftHandMiddle3
                      {
                        OFFSET 4.35652 -4e-06 -1e-06
                        CHANNELS 3 Zrotation Yrotation Xrotation
                        JOINT LeftHandMiddle4
                        {
                          OFFSET 2.996877 -8e-06 0.0
                          CHANNELS 3 Zrotation Yrotation Xrotation
                          JOINT LeftHandMiddleEnd
                          {
                            OFFSET 2.304287 -0.294569 -0.031741
                            CHANNELS 3 Zrotation Yrotation Xrotation
                          }
                        }
                      }
                    }
                  }
                  JOINT LeftHandRing1
                  {
                    OFFSET 2.882643 -0.053652 -0.322543
                    CHANNELS 3 Zrotation Yrotation Xrotation
                    JOINT LeftHandRing2
                    {
                      OFFSET 5.854541 -0.486202 -1.373841
                      CHANNELS 3 Zrotation Yrotation Xrotation
                      JOINT LeftHandRing3
                      {
                        OFFSET 4.350578 0.0 3e-06
                        CHANNELS 3 Zrotation Yrotation Xrotation
                        JOINT LeftHandRing4
                        {
                          OFFSET 2.651321 7e-06 2e-06
                          CHANNELS 3 Zrotation Yrotation Xrotation
                          JOINT LeftHandRingEnd
                          {
                            OFFSET 1.936105 0.077687 -7.1e-05
                            CHANNELS 3 Zrotation Yrotation Xrotation
                          }
                        }
                      }
                    }
                  }
                  JOINT LeftHandPinky1
                  {
                    OFFSET 2.8655 -0.310005 -1.600378
                    CHANNELS 3 Zrotation Yrotation Xrotation
                    JOINT LeftHandPinky2
                    {
                      OFFSET 5.087849 -1.331141 -1.77123
                      CHANNELS 3 Zrotation Yrotation Xrotation
                      JOINT LeftHandPinky3
                      {
                        OFFSET 3.070974 4e-06 0.0
                        CHANNELS 3 Zrotation Yrotation Xrotation
                        JOINT LeftHandPinky4
                        {
                          OFFSET 1.549672 0.0 1e-06
                          CHANNELS 3 Zrotation Yrotation Xrotation
                          JOINT LeftHandPinkyEnd
                          {
                            OFFSET 1.944893 -0.157802 0.057219
                            CHANNELS 3 Zrotation Yrotation Xrotation
                          }
                        }
                      }
                    }
                  }
                }
              }
            }
          }
          JOINT RightShoulder
          {
            OFFSET -1.380118 23.180309 5.214158
            CHANNELS 3 Zrotation Yrotation Xrotation
            JOINT RightArm
            {
              OFFSET -15.037196 1.2e-05 -5.545604
              CHANNELS 3 Zrotation Yrotation Xrotation
              JOINT RightForeArm
              {
                OFFSET -28.736639 2e-06 -0.002597
                CHANNELS 3 Zrotation Yrotation Xrotation
                JOINT RightHand
                {
                  OFFSET -27.133619 -0.0 0.002613
                  CHANNELS 3 Zrotation Yrotation Xrotation
                  JOINT RightHandThumb1
                  {
                    OFFSET -2.274032 -1.383988 3.163127
                    CHANNELS 3 Zrotation Yrotation Xrotation
                    JOINT RightHandThumb2
                    {
                      OFFSET -4.011429 -1.827466 1.640914
                      CHANNELS 3 Zrotation Yrotation Xrotation
                      JOINT RightHandThumb3
                      {
                        OFFSET -2.794935 -4e-06 -3e-06
                        CHANNELS 3 Zrotation Yrotation Xrotation
                        JOINT RightHandThumbEnd
                        {
                          OFFSET -3.183852 4e-06 1e-06
                          CHANNELS 3 Zrotation Yrotation Xrotation
                        }
                      }
                    }
                  }
                  JOINT RightHandIndex1
                  {
                    OFFSET -3.253266 -0.520057 2.282866
                    CHANNELS 3 Zrotation Yrotation Xrotation
                    JOINT RightHandIndex2
                    {
                      OFFSET -6.341917 0.012471 0.178266
                      CHANNELS 3 Zrotation Yrotation Xrotation
                      JOINT RightHandIndex3
                      {
                        OFFSET -3.654871 -8e-06 -0.0
                        CHANNELS 3 Zrotation Yrotation Xrotation
                        JOINT RightHandIndex4
                        {
                          OFFSET -2.327586 0.0 1e-06
                          CHANNELS 3 Zrotation Yrotation Xrotation
                          JOINT RightHandIndexEnd
                          {
                            OFFSET -2.76179 -0.180656 -0.113078
                            CHANNELS 3 Zrotation Yrotation Xrotation
                          }
                        }
                      }
                    }
                  }
                  JOINT RightHandMiddle1
                  {
                    OFFSET -3.168106 0.246593 1.00103
                    CHANNELS 3 Zrotation Yrotation Xrotation
                    JOINT RightHandMiddle2
                    {
                      OFFSET -6.180828 -0.258836 -1.000895
                      CHANNELS 3 Zrotation Yrotation Xrotation
                      JOINT RightHandMiddle3
                      {
                        OFFSET -4.348901 0.0 -0.0
                        CHANNELS 3 Zrotation Yrotation Xrotation
                        JOINT RightHandMiddle4
                        {
                          OFFSET -3.00024 -4e-06 -2e-06
                          CHANNELS 3 Zrotation Yrotation Xrotation
                          JOINT RightHandMiddleEnd
                          {
                            OFFSET -2.30252 -0.29437 -0.031706
                            CHANNELS 3 Zrotation Yrotation Xrotation
                          }
                        }
                      }
                    }
                  }
                  JOINT RightHandRing1
                  {
                    OFFSET -2.88569 -0.067952 -0.308858
                    CHANNELS 3 Zrotation Yrotation Xrotation
                    JOINT RightHandRing2
                    {
                      OFFSET -5.854198 -0.48613 -1.373731
                      CHANNELS 3 Zrotation Yrotation Xrotation
                      JOINT RightHandRing3
                      {
                        OFFSET -4.33881 -4e-06 -0.0
                        CHANNELS 3 Zrotation Yrotation Xrotation
                        JOINT RightHandRing4
                        {
                          OFFSET -2.654903 -4e-06 4e-06
                          CHANNELS 3 Zrotation Yrotation Xrotation
                          JOINT RightHandRingEnd
                          {
                            OFFSET -1.933568 0.077527 -5.2e-05
                            CHANNELS 3 Zrotation Yrotation Xrotation
                          }
                        }
                      }
                    }
                  }
                  JOINT RightHandPinky1
                  {
                    OFFSET -2.866425 -0.342796 -1.584145
                    CHANNELS 3 Zrotation Yrotation Xrotation
                    JOINT RightHandPinky2
                    {
                      OFFSET -5.091371 -1.332055 -1.772385
                      CHANNELS 3 Zrotation Yrotation Xrotation
                      JOINT RightHandPinky3
                      {
                        OFFSET -3.062664 -4e-06 1e-06
                        CHANNELS 3 Zrotation Yrotation Xrotation
                        JOINT RightHandPinky4
                        {
                          OFFSET -1.546529 4e-06 -2e-06
                          CHANNELS 3 Zrotation Yrotation Xrotation
                          JOINT RightHandPinkyEnd
                          {
                            OFFSET -1.945119 -0.157718 0.057211
                            CHANNELS 3 Zrotation Yrotation Xrotation
                          }
                        }
                      }
                    }
                  }
                }
              }
            }
          }
        }
      }
    }
    JOINT LeftLeg
    {
      OFFSET 10.043214 -8.434526 2.595655
      CHANNELS 3 Zrotation Yrotation Xrotation
      JOINT LeftShin
      {
        OFFSET -1e-06 -43.221752 -0.802913
        CHANNELS 3 Zrotation Yrotation Xrotation
        JOINT LeftFoot
        {
          OFFSET 1e-06 -42.155094 -3.481523
          CHANNELS 3 Zrotation Yrotation Xrotation
          JOINT LeftToeBase
          {
            OFFSET 0.0 -5.059472 13.231529
            CHANNELS 3 Zrotation Yrotation Xrotation
            JOINT LeftToeEnd
            {
              OFFSET -0.009607 -1.647619 6.513017
              CHANNELS 3 Zrotation Yrotation Xrotation
            }
          }
        }
      }
    }
    JOINT RightLeg
    {
      OFFSET -10.047278 -8.29526 2.620317
      CHANNELS 3 Zrotation Yrotation Xrotation
      JOINT RightShin
      {
        OFFSET 1e-06 -43.362206 -0.805556
        CHANNELS 3 Zrotation Yrotation Xrotation
        JOINT RightFoot
        {
          OFFSET 2e-06 -42.117393 -3.478398
          CHANNELS 3 Zrotation Yrotation Xrotation
          JOINT RightToeBase
          {
            OFFSET -0.0 -5.079609 13.284196
            CHANNELS 3 Zrotation Yrotation Xrotation
            JOINT RightToeEnd
            {
              OFFSET 0.009532 -1.634378 6.460591
              CHANNELS 3 Zrotation Yrotation Xrotation
            }
          }
        }
      }
    }
  }
}
MOTION
Frames: 4
Frame Time: 0.03333333333333333
0.0 0.0 0.0 0.0 -0.0 0.0 2.727126 15.112389 4.91718 40.778877 -0.743239 94.033394 -8.726335 -2.49395 1.000243 -2.23518 -3.88144 -3.585907 -13.858077 -8.501024 13.00953 7.314293 2.8317 -23.158978 -2.930776 -9.550165 -2.97758 -2.911556 -12.108711 16.785202 7.7e-05 -2.3e-05 6e-06 0.30639 -0.040132 -0.243872 1.51687 -3.64809 -10.859637 -0.913886 3.559961 -10.713892 7.32763 -22.90719 10.408847 -45.769398 -48.196251 11.391306 179.685196 -34.596622 -178.491547 17.517414 9.605728 73.05442 -5.882107 9.861288 0.70259 -10.936875 -0.360577 7.156209 1e-06 8.77483 -0.0 -15.403369 18.52095 7.64289 -1.844033 2.498505 -2.507278 -10.163603 4.678945 4.621109 -20.97603 -7e-06 2e-06 -21.226295 2.451694 -3.594001 -0.0 -5e-06 -1e-06 -1.362683 2.240798 -0.746323 -21.334923 0.584906 3.008323 -13.82122 -5e-06 2e-06 -23.887182 -0.249083 -0.839481 -62.098907 2.920214 -0.501273 -0.294024 1.679688 0.833257 -14.218215 0.093212 1.300579 -34.212059 -0.287569 0.967173 -20.033218 0.964533 1.212846 -0.0 1e-06 -1e-06 -3.440389 0.788233 0.501656 -15.928192 -3.167313 2.999709 -6.338828 -2e-06 1e-06 -18.123453 3.64818 -4.905672 -5e-06 -0.0 -2e-06 3.465023 -1.910017 10.072516 17.714888 -7.312694 -69.775612 -177.543167 38.233078 -178.917755 -14.167667 -19.337011 21.974451 2.243543 -5.255039 -3.180161 14.2829 -0.826596 6.952506 -3e-06 -12.69061 -1e-06 17.319372 -17.27047 2.575361 1.665668 -1.955922 -2.878302 4.727801 -4.170589 4.993926 11.020535 4e-06 -2e-06 12.109058 -3.735716 -2.866788 2e-06 -1e-06 0.0 1.291986 -1.928549 -1.498091 14.80014 0.56747 3.865611 14.242584 -1.341738 -6.660665 19.631985 0.143928 -0.648247 50.623661 -0.829951 -6.436291 0.353029 -1.511151 -0.03194 20.222807 3.684314 2.316631 18.787287 6e-06 0.0 10.751636 -0.479867 1.397906 -0.0 -0.0 1e-06 3.27381 0.30595 -0.580111 21.486832 11.830382 2.266134 8.16293 3e-06 -1e-06 18.399096 -3.798983 -4.940579 4e-06 -0.0 -1e-06 -12.859406 19.94017 -114.820129 -3.042492 2.411957 135.394165 -9.99723 19.911234 -7.540449 2.232014 -2.419504 -2.998894 -0.0 -0.0 2e-06 63.778538 73.828209 79.001495 -173.260269 -82.744446 175.207947 7.233784 -30.631124 3.414863 -1.513815 0.733497 -11.527481 0.0 -0.0 -1e-06 
0.0 0.0 0.0 0.0 -0.0 0.0 3.053621 14.891177 5.178661 40.782654 -0.661983 94.696297 -8.829161 -2.577888 0.997434 -2.181186 -3.693094 -3.671616 -13.909353 -8.366392 12.759148 7.223892 2.613643 -23.751776 -3.062268 -10.005954 -2.87766 -3.066884 -12.339657 16.10034 7.7e-05 -2.3e-05 6e-06 0.302779 -0.054558 -0.24622 1.485201 -3.681936 -10.884683 -0.889713 3.562135 -10.694169 7.811486 -22.932255 10.576673 -47.397827 -48.494011 12.177013 179.726196 -33.75927 -178.840225 16.683764 9.230094 73.197433 -5.882112 9.861297 0.702589 -10.936882 -0.360579 7.156212 1e-06 8.774836 -3e-06 -15.251394 18.549644 7.72017 -1.844035 2.498508 -2.507279 -10.16361 4.678946 4.62111 -20.976048 -7e-06 2e-06 -21.226313 2.451695 -3.594005 0.0 -5e-06 0.0 -1.362682 2.2408 -0.746327 -21.334938 0.584905 3.008325 -13.821229 -6e-06 1e-06 -23.887196 -0.249083 -0.839482 -62.252174 2.89423 -0.395567 -0.294025 1.67969 0.833258 -14.218225 0.093213 1.300582 -34.212086 -0.287572 0.967175 -20.033236 0.964534 1.212849 0.0 1e-06 -0.0 -3.44039 0.788234 0.501655 -15.928206 -3.167317 2.99971 -6.338833 -2e-06 -0.0 -18.123466 3.648182 -4.905678 -5e-06 -0.0 -2e-06 3.835184 -2.224092 10.365957 17.764862 -7.459872 -70.200439 -176.115524 37.647232 -178.114044 -13.27662 -20.7069 21.557785 2.243544 -5.255043 -3.180162 14.282911 -0.826593 6.95251 -2e-06 -12.690619 -4e-06 17.207191 -17.335997 2.573576 1.665669 -1.955924 -2.878303 4.727805 -4.17059 4.993927 11.020544 4e-06 -1e-06 12.10907 -3.735718 -2.866788 1e-06 -1e-06 -0.0 1.291988 -1.928552 -1.498091 14.800151 0.567471 3.865611 14.242589 -1.341736 -6.660666 19.631996 0.143927 -0.648245 50.497849 -0.876537 -6.524273 0.353029 -1.511153 -0.03194 20.222818 3.684316 2.316635 18.7873 7e-06 2e-06 10.751641 -0.479868 1.397908 0.0 -0.0 -0.0 3.273812 0.30595 -0.580112 21.486847 11.830393 2.266138 8.162937 4e-06 -1e-06 18.399105 -3.798984 -4.94058 3e-06 -0.0 0.0 -13.092037 20.298079 -114.839348 -3.178035 2.507414 134.886459 -10.337652 18.398851 -6.561964 2.23026 -2.412837 -3.215827 -1e-06 0.0 2e-06 62.138649 74.143478 76.669144 -169.552582 -82.997673 171.067383 6.970946 -30.700727 2.746103 -1.52887 0.736787 -10.586838 1e-06 -0.0 -1e-06 
0.0 0.0 0.0 0.0 -0.0 0.0 3.634008 14.924633 5.6914 40.685509 -0.472639 95.162094 -8.972635 -2.624385 0.977357 -2.244013 -3.711032 -3.721805 -13.747983 -8.366399 12.630699 7.441043 2.540264 -23.705498 -3.305514 -10.423283 -2.809362 -3.33775 -12.432839 15.24146 7.7e-05 -2.3e-05 6e-06 0.259706 -0.055123 -0.24983 1.40162 -3.6985 -10.936215 -0.891323 3.57575 -10.716877 8.47228 -22.886641 10.539605 -49.20187 -48.398479 12.833333 179.605774 -33.257675 -178.879288 15.869371 9.037235 73.507706 -5.88211 9.861292 0.702587 -10.936878 -0.360579 7.156211 1e-06 8.774833 -3e-06 -15.258095 18.41935 7.542586 -1.844034 2.498507 -2.507279 -10.163606 4.678946 4.621109 -20.97604 -8e-06 3e-06 -21.226305 2.451694 -3.594003 1e-06 -6e-06 0.0 -1.362682 2.2408 -0.746324 -21.334929 0.584904 3.008323 -13.821223 -6e-06 1e-06 -23.887186 -0.249085 -0.839481 -62.342197 2.758222 -0.234889 -0.294024 1.679688 0.833254 -14.218219 0.093212 1.300581 -34.212074 -0.287572 0.967173 -20.03323 0.964531 1.212847 0.0 1e-06 -1e-06 -3.44039 0.788233 0.501656 -15.9282 -3.167316 2.999708 -6.338829 -2e-06 1e-06 -18.123459 3.648183 -4.905676 -5e-06 -0.0 -2e-06 3.495668 -2.474692 10.904999 18.507431 -6.182412 -71.258095 -175.746704 37.249405 -177.856644 -12.222038 -22.009809 21.274176 2.243541 -5.255038 -3.180158 14.282896 -0.826594 6.952505 -0.0 -12.690606 -3e-06 17.149204 -17.400597 2.587499 1.665667 -1.955922 -2.878299 4.7278 -4.170588 4.993922 11.020528 5e-06 0.0 12.109055 -3.735717 -2.866785 1e-06 0.0 -0.0 1.291986 -1.928551 -1.498091 14.800131 0.567469 3.865608 14.242575 -1.341736 -6.660657 19.631971 0.143926 -0.648243 50.633759 -0.950764 -6.541206 0.353029 -1.511152 -0.03194 20.222799 3.684313 2.316631 18.787279 5e-06 1e-06 10.751631 -0.479868 1.397907 0.0 -1e-06 1e-06 3.273807 0.305947 -0.580111 21.48682 11.830381 2.266137 8.162928 2e-06 -0.0 18.399084 -3.798984 -4.940578 3e-06 0.0 -1e-06 -13.723738 20.531019 -114.753532 -3.731782 2.356339 134.318054 -10.550443 16.258438 -4.641232 2.268085 -2.392799 -3.778693 -0.0 0.0 2e-06 63.829964 74.689117 77.770874 -168.716629 -82.344963 169.816132 6.890555 -30.61587 1.764789 -1.527134 0.7331 -11.140982 0.0 -0.0 -1e-06 
0.0 0.0 0.0 0.0 -0.0 0.0 4.059597 14.972872 6.112812 40.624886 -0.297733 95.520576 -9.120062 -2.679103 0.898364 -2.323785 -3.852565 -3.774247 -13.579842 -8.435246 12.609309 7.633839 2.468013 -23.516935 -3.66471 -10.662868 -2.768352 -3.606403 -12.541327 14.451709 7.7e-05 -2.3e-05 6e-06 0.218266 -0.051356 -0.252734 1.332317 -3.708102 -10.977383 -0.904027 3.593378 -10.748153 9.140812 -22.906281 10.502993 -50.843288 -48.070129 13.38635 179.42662 -32.986038 -178.706451 15.064563 8.924286 74.252403 -5.88211 9.861292 0.702587 -10.936875 -0.360577 7.156208 0.0 8.77483 -3e-06 -15.299699 18.260229 7.320482 -1.844033 2.498507 -2.50728 -10.163604 4.678946 4.621109 -20.976034 -4e-06 1e-06 -21.226295 2.451697 -3.594004 0.0 -6e-06 0.0 -1.362682 2.2408 -0.746324 -21.334927 0.584907 3.008324 -13.821221 -5e-06 0.0 -23.887182 -0.24908 -0.839483 -62.33012 2.671219 -0.159731 -0.294025 1.679688 0.833257 -14.218215 0.093214 1.300581 -34.212067 -0.287569 0.96717 -20.033222 0.964537 1.212845 -0.0 2e-06 0.0 -3.44039 0.788233 0.501655 -15.928194 -3.167314 2.999709 -6.338828 -1e-06 0.0 -18.123453 3.648181 -4.905674 -5e-06 1e-06 -2e-06 2.952272 -2.740971 11.312319 19.24655 -4.356525 -72.268608 -176.073502 37.152714 -178.018066 -11.557798 -22.84145 21.054914 2.243541 -5.255037 -3.180158 14.282887 -0.826594 6.9525 -3e-06 -12.690604 -1e-06 17.047712 -17.456341 2.647486 1.665665 -1.95592 -2.878298 4.727798 -4.170587 4.993923 11.020526 5e-06 -2e-06 12.109049 -3.735714 -2.866785 1e-06 -1e-06 1e-06 1.291985 -1.92855 -1.498089 14.800125 0.56747 3.865606 14.242569 -1.341734 -6.660655 19.631962 0.143926 -0.648244 50.762421 -1.031189 -6.509037 0.353029 -1.511151 -0.03194 20.22279 3.684313 2.316631 18.78727 7e-06 1e-06 10.751629 -0.479867 1.397907 1e-06 -0.0 0.0 3.273807 0.305945 -0.580111 21.486813 11.830377 2.266137 8.162926 1e-06 -0.0 18.399078 -3.798985 -4.940573 3e-06 0.0 -1e-06 -14.270288 20.500593 -114.567589 -4.13219 2.13676 133.808731 -10.496331 15.081857 -2.881019 2.326234 -2.397027 -4.261293 -0.0 -1e-06 2e-06 67.390739 75.283615 80.937958 -170.346222 -81.015854 171.278595 6.979341 -30.140444 0.753899 -1.508302 0.728615 -11.865083 0.0 0.0 -1e-06 
